<?xml version="1.0" encoding="UTF-8" standalone="no"?>
<svg width="258px" height="258px" viewBox="0 0 258 258" version="1.1" xmlns="http://www.w3.org/2000/svg" xmlns:xlink="http://www.w3.org/1999/xlink">
    <!-- Generator: Sketch 3.7 (28169) - http://www.bohemiancoding.com/sketch -->
    <title>Digital Products</title>
    <desc>Created with Sketch.</desc>
    <defs></defs>
    <g id="Digital-Products" stroke="none" stroke-width="1" fill="none" fill-rule="evenodd">
        <g id="Icons-4-Copy-2" transform="translate(-614.000000, -406.000000)" fill="#3A7AD6">
            <g id="Digital-Products" transform="translate(719.917045, 511.917045) rotate(-45.000000) translate(-719.917045, -511.917045) translate(644.917045, 366.417045)">
                <path d="M0,82.8102494 C0,77.2844661 3.12717073,69.5943718 6.97167305,65.6473494 L68.028327,2.96251807 C71.8786757,-0.990506598 78.1271707,-0.984504311 81.971673,2.96251807 L143.028327,65.6473494 C146.878676,69.6003741 150,77.2832106 150,82.8102494 L150,280.799618 C150,286.325401 145.531167,290.804934 139.998201,290.804934 L10.0017993,290.804934 C4.47795805,290.804934 0,286.326657 0,280.799618 L0,82.8102494 Z M75.9791516,66.158634 C83.7034722,66.158634 90.3537003,59.5084059 90.3537003,51.7840854 C90.3537003,43.1014616 83.7034722,36.4512334 75.9791516,36.4512334 C67.2965278,36.4512334 60.6462997,43.1014616 60.6462997,51.7840854 C60.6462997,59.5084059 67.2965278,66.158634 75.9791516,66.158634 Z M0,230.804934 L30,230.804934 L30,260.804934 L0,260.804934 L0,230.804934 Z M0,200.804934 L30,200.804934 L30,230.804934 L0,230.804934 L0,200.804934 Z M30,200.804934 L60,200.804934 L60,230.804934 L30,230.804934 L30,200.804934 Z M60,230.804934 L90,230.804934 L90,260.804934 L60,260.804934 L60,230.804934 Z M120,230.804934 L150,230.804934 L150,260.804934 L120,260.804934 L120,230.804934 Z M90,260.804934 L120,260.804934 L120,290.804934 L90,290.804934 L90,260.804934 Z M120,170.804934 L150,170.804934 L150,200.804934 L120,200.804934 L120,170.804934 Z M90,140.804934 L120,140.804934 L120,170.804934 L90,170.804934 L90,140.804934 Z M0,140.804934 L30,140.804934 L30,170.804934 L0,170.804934 L0,140.804934 Z M60,170.804934 L90,170.804934 L90,200.804934 L60,200.804934 L60,170.804934 Z" id="Combined-Shape"></path>
            </g>
        </g>
    </g>
</svg>