<?xml version="1.0" encoding="utf-8"?>
<!-- Generator: Adobe Illustrator 16.0.0, SVG Export Plug-In . SVG Version: 6.00 Build 0)  -->
<!DOCTYPE svg PUBLIC "-//W3C//DTD SVG 1.1//EN" "http://www.w3.org/Graphics/SVG/1.1/DTD/svg11.dtd">
<svg version="1.1" id="Layer_1" xmlns="http://www.w3.org/2000/svg" xmlns:xlink="http://www.w3.org/1999/xlink" x="0px" y="0px"
	 width="413.249px" height="413.391px" viewBox="0 0 413.249 413.391" enable-background="new 0 0 413.249 413.391"
	 xml:space="preserve">
<path fill-rule="evenodd" clip-rule="evenodd" d="M168.208,359.219c20.903-20.882,41.629-41.586,61.861-61.797
	c-21.702-21.7-42.965-42.959-64.042-64.033c-19.889,19.905-40.682,40.715-61.89,61.941c-1.984-1.849-3.176-2.893-4.293-4.01
	c-28.641-28.627-57.298-57.238-85.896-85.908c-9.806-9.83-14.35-21.78-13.919-35.672c1.481-47.8,2.942-95.601,4.371-143.402
	c0.406-13.59,7.827-21.501,21.354-21.933c48.631-1.553,97.266-3.013,145.903-4.386c12.398-0.35,23.493,3.838,32.239,12.468
	c30.009,29.612,59.7,59.548,89.505,89.367c0.343,0.343,0.59,0.782,0.922,1.23c-21.182,21.145-42.338,42.263-63.136,63.022
	c21.988,22.002,43.245,43.271,64.437,64.477c20.597-20.608,41.65-41.674,62.931-62.966c1.545,1.261,2.598,1.979,3.484,2.864
	c14.745,14.713,29.504,29.413,44.187,44.189c9.284,9.344,9.378,19.729,0.206,28.972c-15.729,15.85-31.561,31.6-47.356,47.383
	c-0.687,0.686-1.449,1.296-2.575,2.295c-20.445-20.466-40.789-40.83-60.87-60.931c-21.335,21.329-42.518,42.506-63.574,63.556
	c19.955,19.936,40.298,40.259,60.074,60.017c-0.248,1.624-0.185,2.021-0.352,2.189c-16.459,16.528-32.824,33.153-49.462,49.501
	c-7.463,7.332-17.962,7.733-25.218,0.647C200.656,392.243,184.63,375.759,168.208,359.219z M166.409,230.956
	c21.256-21.257,42.441-42.443,63.33-63.333c-21.1-21.099-42.384-42.382-63.241-63.237c-20.948,20.945-42.216,42.211-63.29,63.282
	C124.018,188.506,145.191,209.708,166.409,230.956z M63.006,90.076c14.757,0.066,27.121-12.252,27.109-27.011
	c-0.011-14.429-11.83-26.395-26.324-26.651C49.11,36.155,36.581,48.441,36.472,63.205C36.364,77.897,48.324,90.008,63.006,90.076z"
	/>
</svg>
